<svg width="36" height="46" viewBox="0 0 36 46" fill="none" xmlns="http://www.w3.org/2000/svg">
<ellipse cx="18.0001" cy="43.4" rx="8.4" ry="2.4" fill="black" fill-opacity="0.1"/>
<path fill-rule="evenodd" clip-rule="evenodd" d="M21.296 35.6989C29.6631 34.1506 36 26.8153 36 18C36 8.05887 27.9411 0 18 0C8.05887 0 0 8.05887 0 18C0 26.8137 6.33463 34.1479 14.6994 35.6981L17.9979 45.5999L21.296 35.6989Z" fill="#2D3997"/>
<path d="M22.5091 22.2617L13.4628 22.2903V28.2139H12.071L12.0946 22.2946L10.6793 22.2991V20.5594H25.2925V22.2529L23.9008 22.2573V28.2139H22.5091V22.2617ZM17.9859 14.6445L18.0156 14.6138H7.19995V12.6879L18.0156 7.20007L28.8 12.6879V14.6138L17.9859 14.6445ZM7.89582 15.6883L9.28756 15.6981V28.2335H7.89582V15.6883ZM28.076 28.2139H26.6843V15.6981L28.076 15.6883V28.2139Z" fill="white"/>
</svg>
